# xmcd
#
# Track frame offsets: 
#        150
#        17330
#        33827
#        52710
#        70522
#        83677
#        101817
#        116732
#        140175
#        148690
#        166395
#        187307
#        201390
#        216992
#
# Disc length: 3004 seconds
#
# Revision: 2
# Processed by: cddbd v1.5.2PL0 Copyright (c) Steve Scherf et al.
# Submitted via: ExactAudioCopy v0.99pb5
#
DISCID=cb0bba0e
DTITLE=Kenny "Blue" Ray - In All Of My Life
DYEAR=1900
DGENRE=Blues
TTITLE0=I Can't Take It
TTITLE1=No Time to Waste
TTITLE2=In All Of My Life
TTITLE3=Listen to Me Baby
TTITLE4='56 Eldorado
TTITLE5=Can't Do This to Me
TTITLE6=Bayou Boogie
TTITLE7=You Got Me Nervous
TTITLE8=Blues for the Iceman
TTITLE9=Bluesman for Life
TTITLE10=For Jannie Ray
TTITLE11=Bailin' on the Gator
TTITLE12=What's on Your Mind?
TTITLE13=Throw Me the Whiskey
EXTD=
EXTT0=
EXTT1=
EXTT2=
EXTT3=
EXTT4=
EXTT5=
EXTT6=
EXTT7=
EXTT8=
EXTT9=
EXTT10=
EXTT11=
EXTT12=
EXTT13=
PLAYORDER=
